<svg width="100" height="40" viewBox="0 0 121 61" fill="none" xmlns="http://www.w3.org/2000/svg">
<path d="M18.5547 37.0879C18.5059 37.3158 18.4082 37.5192 18.2617 37.6982C18.1315 37.8773 17.9769 38.0482 17.7979 38.2109C17.6351 38.3574 17.4642 38.5039 17.2852 38.6504C17.1224 38.7806 16.9759 38.9271 16.8457 39.0898C16.6992 39.3177 16.5934 39.57 16.5283 39.8467C16.4795 40.1071 16.39 40.3268 16.2598 40.5059C16.097 40.6849 15.8936 40.8639 15.6494 41.043C15.4215 41.2057 15.2018 41.3929 14.9902 41.6045C14.8112 41.7835 14.6566 41.9544 14.5264 42.1172C14.3962 42.2799 14.2578 42.4264 14.1113 42.5566C13.9811 42.6868 13.8265 42.7926 13.6475 42.874C13.4684 42.9554 13.2487 42.9961 12.9883 42.9961C12.793 42.9961 12.5244 42.9391 12.1826 42.8252C11.8571 42.7113 11.5072 42.5566 11.1328 42.3613C10.7747 42.1497 10.4167 41.9137 10.0586 41.6533C9.70052 41.3766 9.39941 41.0918 9.15527 40.7988C9.02507 40.6686 8.91113 40.4977 8.81348 40.2861C8.7321 40.0583 8.6263 39.8792 8.49609 39.749C8.31706 39.57 8.06478 39.4072 7.73926 39.2607C7.41374 39.098 7.10449 38.8945 6.81152 38.6504C6.58366 38.4551 6.37207 38.2109 6.17676 37.918C5.99772 37.625 5.80241 37.4053 5.59082 37.2588C5.41178 37.1449 5.19206 37.0798 4.93164 37.0635C4.6875 37.0309 4.49219 36.9414 4.3457 36.7949C4.21549 36.6973 4.10156 36.5182 4.00391 36.2578C3.90625 35.9811 3.75163 35.7451 3.54004 35.5498C3.40983 35.4196 3.23079 35.3382 3.00293 35.3057C2.79134 35.2731 2.62044 35.208 2.49023 35.1104C2.44141 35.0778 2.40072 35.0046 2.36816 34.8906C2.35189 34.7604 2.29492 34.6302 2.19727 34.5C2.13216 34.4349 2.04264 34.3535 1.92871 34.2559C1.81478 34.1419 1.70085 34.028 1.58691 33.9141C1.47298 33.7839 1.36719 33.6618 1.26953 33.5479C1.17188 33.4339 1.11491 33.3363 1.09863 33.2549C1.06608 33.1572 1.03353 32.9782 1.00098 32.7178C0.984701 32.4574 0.968424 32.1969 0.952148 31.9365C0.952148 31.6761 0.952148 31.4482 0.952148 31.2529C0.952148 31.0413 0.952148 30.9437 0.952148 30.96C1.01725 30.5368 1.20443 30.1462 1.51367 29.7881C1.82292 29.43 2.16471 29.0964 2.53906 28.7871C2.91341 28.4616 3.2959 28.1523 3.68652 27.8594C4.07715 27.5501 4.39453 27.2327 4.63867 26.9072C4.80143 26.7282 4.89095 26.5247 4.90723 26.2969C4.93978 26.0527 5.00488 25.8574 5.10254 25.7109C5.2002 25.5645 5.32227 25.4342 5.46875 25.3203C5.61523 25.1901 5.76986 25.068 5.93262 24.9541C6.09538 24.8239 6.25 24.6937 6.39648 24.5635C6.55924 24.4333 6.69759 24.2949 6.81152 24.1484C6.99056 23.9043 7.12077 23.6357 7.20215 23.3428C7.28353 23.0335 7.41374 22.7894 7.59277 22.6104C7.80436 22.3988 8.08919 22.2035 8.44727 22.0244C8.80534 21.8454 9.139 21.6175 9.44824 21.3408C9.5459 21.2432 9.63542 21.1048 9.7168 20.9258C9.81445 20.7467 9.92839 20.5921 10.0586 20.4619C10.4004 20.1038 10.7585 19.7295 11.1328 19.3389C11.5234 18.932 11.9141 18.5576 12.3047 18.2158C12.7116 17.874 13.1104 17.5973 13.501 17.3857C13.8916 17.1579 14.2741 17.0439 14.6484 17.0439C14.9089 17.0439 15.1855 17.1253 15.4785 17.2881C15.7715 17.4346 16.04 17.638 16.2842 17.8984C16.5283 18.1589 16.7318 18.46 16.8945 18.8018C17.0573 19.1273 17.1387 19.4609 17.1387 19.8027C17.1387 20.0469 17.041 20.3398 16.8457 20.6816C16.6667 21.0234 16.4469 21.3815 16.1865 21.7559C15.9261 22.1302 15.6576 22.4883 15.3809 22.8301C15.1042 23.1719 14.8763 23.4648 14.6973 23.709C14.5671 23.8555 14.3799 23.9857 14.1357 24.0996C13.9079 24.1973 13.7288 24.3112 13.5986 24.4414C13.501 24.5716 13.387 24.7669 13.2568 25.0273C13.1429 25.2715 13.0046 25.4993 12.8418 25.7109C12.7441 25.8411 12.557 26.0527 12.2803 26.3457C12.0199 26.6387 11.7432 26.9479 11.4502 27.2734C11.1735 27.599 10.9212 27.9082 10.6934 28.2012C10.4818 28.4941 10.3678 28.6976 10.3516 28.8115C10.3516 29.0557 10.4167 29.251 10.5469 29.3975C10.6934 29.5277 10.8643 29.6416 11.0596 29.7393C11.2549 29.8206 11.4583 29.902 11.6699 29.9834C11.8815 30.0648 12.0605 30.1706 12.207 30.3008C12.3047 30.3984 12.3942 30.5775 12.4756 30.8379C12.5732 31.082 12.7441 31.318 12.9883 31.5459C13.1999 31.7412 13.4847 31.9284 13.8428 32.1074C14.2171 32.2865 14.6159 32.4736 15.0391 32.6689C15.4622 32.8643 15.8854 33.0758 16.3086 33.3037C16.748 33.5316 17.1387 33.792 17.4805 34.085C17.8223 34.3617 18.099 34.679 18.3105 35.0371C18.5384 35.3952 18.6523 35.8021 18.6523 36.2578C18.6523 36.4043 18.6442 36.5426 18.6279 36.6729C18.6117 36.8031 18.5872 36.9414 18.5547 37.0879ZM53.9795 18.2891C53.9795 18.6471 53.9225 19.0052 53.8086 19.3633C53.7109 19.7214 53.6621 20.0632 53.6621 20.3887C53.6621 20.8444 53.6865 21.2839 53.7354 21.707C53.8005 22.1302 53.833 22.5452 53.833 22.9521C53.833 23.4079 53.7923 23.8555 53.7109 24.2949C53.6296 24.7181 53.54 25.1413 53.4424 25.5645C53.361 25.9876 53.2796 26.4108 53.1982 26.834C53.1169 27.2572 53.0762 27.6803 53.0762 28.1035C53.0762 28.3965 53.1006 28.6976 53.1494 29.0068C53.1982 29.2998 53.2227 29.5846 53.2227 29.8613C53.2227 30.1543 53.1982 30.431 53.1494 30.6914C53.1006 30.9355 53.0436 31.1878 52.9785 31.4482C52.9134 31.7087 52.8564 31.9854 52.8076 32.2783C52.7588 32.555 52.7344 32.8643 52.7344 33.2061C52.7344 33.8245 52.7425 34.4349 52.7588 35.0371C52.7751 35.623 52.7832 36.2415 52.7832 36.8926C52.7832 37.1693 52.7751 37.4622 52.7588 37.7715C52.7425 38.0645 52.7344 38.3737 52.7344 38.6992C52.7344 39.0085 52.653 39.3665 52.4902 39.7734C52.3438 40.1641 52.2705 40.571 52.2705 40.9941C52.2705 41.2708 52.2624 41.6208 52.2461 42.0439C52.2461 42.4671 52.2217 42.8903 52.1729 43.3135C52.1403 43.7367 52.0833 44.1273 52.002 44.4854C51.9206 44.8271 51.8148 45.0632 51.6846 45.1934C51.473 45.4049 51.1393 45.5433 50.6836 45.6084C50.2441 45.6735 49.7721 45.7061 49.2676 45.7061C48.8118 45.7061 48.3724 45.6979 47.9492 45.6816C47.526 45.6654 47.168 45.6572 46.875 45.6572C46.6471 45.6572 46.4111 45.7061 46.167 45.8037C45.9391 45.9014 45.7601 45.9502 45.6299 45.9502C45.4834 45.9339 45.2555 45.8525 44.9463 45.7061C44.637 45.5433 44.3197 45.3643 43.9941 45.1689C43.6849 44.9736 43.3919 44.7783 43.1152 44.583C42.8385 44.3877 42.6595 44.2249 42.5781 44.0947C42.4154 43.8994 42.2933 43.6715 42.2119 43.4111C42.1305 43.1344 42.041 42.8415 41.9434 42.5322C41.862 42.2067 41.7399 41.8812 41.5771 41.5557C41.4307 41.2139 41.1947 40.8802 40.8691 40.5547C40.7878 40.4733 40.6738 40.4245 40.5273 40.4082C40.3809 40.3919 40.2832 40.3431 40.2344 40.2617C40.153 40.1315 40.1042 39.9769 40.0879 39.7979C40.0716 39.6188 40.0146 39.4561 39.917 39.3096C39.8844 39.2445 39.7868 39.1143 39.624 38.9189C39.4775 38.7074 39.3148 38.4958 39.1357 38.2842C38.973 38.0726 38.8102 37.8854 38.6475 37.7227C38.501 37.5436 38.4115 37.4541 38.3789 37.4541C38.1836 37.4704 37.9801 37.6576 37.7686 38.0156C37.5732 38.3574 37.3779 38.7562 37.1826 39.2119C36.9873 39.6676 36.8083 40.1152 36.6455 40.5547C36.4827 40.9941 36.3444 41.3115 36.2305 41.5068C36.1491 41.637 36.0107 41.7754 35.8154 41.9219C35.6201 42.0521 35.5062 42.1579 35.4736 42.2393C35.1481 42.8252 34.8714 43.4437 34.6436 44.0947C34.432 44.7295 34.139 45.348 33.7646 45.9502C33.5042 46.3734 33.2845 46.6908 33.1055 46.9023C32.9427 47.0977 32.7555 47.2279 32.5439 47.293C32.3486 47.3743 32.0964 47.415 31.7871 47.415C31.4779 47.4313 31.0547 47.4557 30.5176 47.4883C30.1758 47.5208 29.8177 47.5778 29.4434 47.6592C29.0853 47.7568 28.776 47.8057 28.5156 47.8057C28.2227 47.8057 27.9378 47.7406 27.6611 47.6104C27.4007 47.4801 27.124 47.3906 26.8311 47.3418C26.2777 47.2279 25.7731 47.1302 25.3174 47.0488C24.8617 46.9837 24.471 46.8617 24.1455 46.6826C23.82 46.4873 23.5677 46.2025 23.3887 45.8281C23.2096 45.4538 23.1201 44.9248 23.1201 44.2412V43.2891C23.1201 42.8984 23.0713 42.4834 22.9736 42.0439C22.876 41.5882 22.762 41.1569 22.6318 40.75C22.5179 40.3431 22.4121 39.9769 22.3145 39.6514C22.2168 39.3096 22.168 39.041 22.168 38.8457C22.168 38.7643 22.1924 38.6504 22.2412 38.5039C22.29 38.3574 22.3389 38.2028 22.3877 38.04C22.4528 37.8773 22.5098 37.7064 22.5586 37.5273C22.6074 37.3483 22.6318 37.1855 22.6318 37.0391C22.6318 36.7949 22.5911 36.5345 22.5098 36.2578C22.4284 35.9811 22.3389 35.6963 22.2412 35.4033C22.1598 35.1104 22.0785 34.8092 21.9971 34.5C21.9157 34.1745 21.875 33.8408 21.875 33.499C21.875 33.32 21.8994 33.1328 21.9482 32.9375C21.9971 32.7259 22.0215 32.5306 22.0215 32.3516C22.0052 32.0749 21.9645 31.79 21.8994 31.4971C21.8343 31.1878 21.7611 30.8786 21.6797 30.5693C21.5983 30.2438 21.5251 29.9183 21.46 29.5928C21.3949 29.251 21.3623 28.901 21.3623 28.543C21.3623 28.2988 21.3704 28.0465 21.3867 27.7861C21.403 27.5257 21.4111 27.2816 21.4111 27.0537C21.4111 26.7119 21.3623 26.3376 21.2646 25.9307C21.167 25.5075 21.0612 25.068 20.9473 24.6123C20.8333 24.1403 20.7275 23.6602 20.6299 23.1719C20.5322 22.6673 20.4834 22.179 20.4834 21.707C20.4834 21.4303 20.4997 21.1292 20.5322 20.8037C20.5811 20.4782 20.6299 20.1689 20.6787 19.876C20.7438 19.583 20.8089 19.3226 20.874 19.0947C20.9391 18.8506 21.0042 18.6878 21.0693 18.6064C21.1344 18.5576 21.2728 18.5088 21.4844 18.46C21.7122 18.4111 21.9645 18.3623 22.2412 18.3135C22.5342 18.2646 22.8271 18.2158 23.1201 18.167C23.4294 18.1182 23.6816 18.0612 23.877 17.9961C24.4466 17.8171 24.9837 17.6462 25.4883 17.4834C25.9928 17.3206 26.5055 17.223 27.0264 17.1904C27.2705 17.1904 27.5228 17.1986 27.7832 17.2148C28.0599 17.2311 28.3203 17.2393 28.5645 17.2393C29.0365 17.2393 29.484 17.166 29.9072 17.0195C30.3304 16.873 30.721 16.7998 31.0791 16.7998C31.3721 16.7998 31.6081 16.9056 31.7871 17.1172C31.9824 17.3125 32.1289 17.5811 32.2266 17.9229C32.3242 18.2646 32.3893 18.6553 32.4219 19.0947C32.4544 19.5342 32.4707 19.9899 32.4707 20.4619C32.4707 21.1618 32.4544 21.8617 32.4219 22.5615C32.3893 23.2614 32.373 23.8717 32.373 24.3926C32.373 24.7669 32.4219 25.1576 32.5195 25.5645C32.6172 25.9551 32.666 26.3376 32.666 26.7119C32.666 27.0863 32.6253 27.4932 32.5439 27.9326C32.4626 28.3558 32.4056 28.7464 32.373 29.1045C32.3242 29.609 32.2835 30.1136 32.251 30.6182C32.2184 31.1227 32.1615 31.554 32.0801 31.9121C31.9987 32.14 31.8766 32.3678 31.7139 32.5957C31.5511 32.8073 31.4535 33.0433 31.4209 33.3037C31.4209 33.499 31.4616 33.735 31.543 34.0117C31.6243 34.2721 31.6813 34.5488 31.7139 34.8418C31.7952 35.4766 31.8278 36.1195 31.8115 36.7705C31.8115 37.4053 31.8522 37.9993 31.9336 38.5527C32.1777 38.097 32.3975 37.5924 32.5928 37.0391C32.8044 36.4857 32.9997 35.916 33.1787 35.3301C33.374 34.7441 33.5612 34.1501 33.7402 33.5479C33.9355 32.9294 34.1471 32.3271 34.375 31.7412C34.5703 31.2204 34.7982 30.6751 35.0586 30.1055C35.319 29.5195 35.5794 28.9499 35.8398 28.3965C36.1165 27.8268 36.3688 27.2734 36.5967 26.7363C36.8408 26.1992 37.0361 25.7028 37.1826 25.2471C37.2965 24.8564 37.3779 24.4902 37.4268 24.1484C37.4756 23.8066 37.557 23.5055 37.6709 23.2451C37.7848 22.9847 37.972 22.7812 38.2324 22.6348C38.4928 22.472 38.9079 22.3906 39.4775 22.3906C40.2913 22.3906 40.8854 22.4883 41.2598 22.6836C41.6341 22.8626 41.8945 23.123 42.041 23.4648C42.2038 23.7904 42.3096 24.181 42.3584 24.6367C42.4235 25.0762 42.5456 25.5482 42.7246 26.0527C42.9199 26.6549 43.221 27.2572 43.6279 27.8594C44.0348 28.4616 44.401 29.0882 44.7266 29.7393C45.0521 30.4066 45.3532 31.082 45.6299 31.7656C45.9066 32.4329 46.167 33.0921 46.4111 33.7432C46.4437 33.5153 46.4681 33.3037 46.4844 33.1084C46.5169 32.8968 46.5332 32.6771 46.5332 32.4492C46.5332 31.9609 46.5007 31.4808 46.4355 31.0088C46.3704 30.5205 46.2972 30.0404 46.2158 29.5684C46.1507 29.0964 46.0856 28.6406 46.0205 28.2012C45.9554 27.7454 45.9229 27.2979 45.9229 26.8584C45.9229 26.6305 45.931 26.3945 45.9473 26.1504C45.9635 25.9062 45.9717 25.6702 45.9717 25.4424C45.9717 24.9378 45.8903 24.4821 45.7275 24.0752C45.5648 23.652 45.3857 23.2614 45.1904 22.9033C45.0114 22.529 44.8405 22.1709 44.6777 21.8291C44.515 21.471 44.4336 21.0967 44.4336 20.7061C44.4336 20.3805 44.4661 19.9492 44.5312 19.4121C44.5964 18.875 44.6289 18.3053 44.6289 17.7031C44.6289 17.0033 44.5557 16.3604 44.4092 15.7744C44.279 15.1885 44.2139 14.6839 44.2139 14.2607C44.2139 14.1794 44.2139 14.1143 44.2139 14.0654C44.2139 14.0003 44.2301 13.9271 44.2627 13.8457C44.3604 13.2435 44.4987 12.8122 44.6777 12.5518C44.873 12.2913 45.0928 12.1286 45.3369 12.0635C45.5973 11.9821 45.8903 11.9495 46.2158 11.9658C46.5576 11.9658 46.9238 11.9251 47.3145 11.8438C47.4935 11.8275 47.7132 11.7949 47.9736 11.7461C48.234 11.681 48.5189 11.624 48.8281 11.5752C49.1536 11.5101 49.4873 11.4613 49.8291 11.4287C50.1709 11.3799 50.5046 11.3555 50.8301 11.3555C51.5137 11.3555 52.0589 11.5182 52.4658 11.8438C52.889 12.153 53.2064 12.5762 53.418 13.1133C53.6458 13.6504 53.7923 14.2852 53.8574 15.0176C53.9388 15.75 53.9795 16.5312 53.9795 17.3613V18.2891ZM80.5664 26.8584C80.5664 27.2002 80.5094 27.4688 80.3955 27.6641C80.2816 27.8431 80.1839 28.0872 80.1025 28.3965C79.9398 29.1126 79.7933 29.9264 79.6631 30.8379C79.5492 31.7331 79.3783 32.6038 79.1504 33.4502C78.9388 34.2803 78.6296 35.0208 78.2227 35.6719C77.832 36.3066 77.2786 36.7135 76.5625 36.8926C76.3835 36.9414 76.1556 36.974 75.8789 36.9902C75.6185 37.0065 75.3255 37.0228 75 37.0391C74.6908 37.0553 74.3652 37.0798 74.0234 37.1123C73.6816 37.1286 73.348 37.1611 73.0225 37.21C72.5505 37.2913 72.1191 37.4053 71.7285 37.5518C71.3542 37.6982 71.0124 37.7959 70.7031 37.8447C70.4427 37.8773 70.1335 37.9017 69.7754 37.918C69.4173 37.918 69.0755 37.9261 68.75 37.9424C68.4408 37.9424 68.1722 37.9668 67.9443 38.0156C67.7165 38.0482 67.6025 38.1133 67.6025 38.2109C67.6025 38.9434 67.6676 39.7165 67.7979 40.5303C67.9281 41.3278 68.0664 42.1335 68.2129 42.9473C68.3594 43.7448 68.4977 44.5342 68.6279 45.3154C68.7581 46.0804 68.8232 46.8047 68.8232 47.4883C68.8232 47.6673 68.807 47.8708 68.7744 48.0986C68.7581 48.3265 68.7093 48.5625 68.6279 48.8066C68.5628 49.0508 68.457 49.2949 68.3105 49.5391C68.1803 49.7832 68.0013 50.0029 67.7734 50.1982C67.5618 50.3447 67.2689 50.4261 66.8945 50.4424C66.5202 50.4749 66.1458 50.597 65.7715 50.8086C65.6087 50.89 65.4785 50.9876 65.3809 51.1016C65.2995 51.2155 65.2018 51.3213 65.0879 51.4189C64.9902 51.5329 64.8682 51.6224 64.7217 51.6875C64.5752 51.7689 64.3555 51.8096 64.0625 51.8096C63.8184 51.8096 63.6068 51.777 63.4277 51.7119C63.2487 51.6468 63.0778 51.5654 62.915 51.4678C62.7523 51.3864 62.5895 51.2969 62.4268 51.1992C62.2803 51.1016 62.1094 51.0202 61.9141 50.9551C61.4909 50.8086 61.0921 50.6865 60.7178 50.5889C60.3434 50.5075 60.0098 50.3854 59.7168 50.2227C59.4238 50.0762 59.1878 49.8564 59.0088 49.5635C58.846 49.2868 58.7646 48.8636 58.7646 48.2939C58.7646 48.001 58.7972 47.6836 58.8623 47.3418C58.9274 47 58.96 46.6663 58.96 46.3408C58.96 45.5596 58.9111 44.8271 58.8135 44.1436C58.7158 43.4437 58.667 42.8822 58.667 42.459C58.667 42.2637 58.7158 42.0358 58.8135 41.7754C58.9274 41.4987 59.0495 41.222 59.1797 40.9453C59.3099 40.6686 59.4238 40.4082 59.5215 40.1641C59.6354 39.9199 59.7005 39.7165 59.7168 39.5537C59.7493 39.3421 59.7738 39.1468 59.79 38.9678C59.8063 38.7887 59.8145 38.6016 59.8145 38.4062C59.8145 37.9668 59.7819 37.5273 59.7168 37.0879C59.668 36.6484 59.6029 36.2171 59.5215 35.7939C59.4564 35.3708 59.3913 34.9557 59.3262 34.5488C59.2773 34.1419 59.2529 33.7432 59.2529 33.3525C59.2529 32.2458 59.2773 31.0983 59.3262 29.9102C59.3913 28.7057 59.4482 27.4932 59.4971 26.2725C59.5622 25.0355 59.6191 23.7904 59.668 22.5371C59.7331 21.2676 59.7656 20.0062 59.7656 18.7529C59.7656 18.4762 59.7412 18.2565 59.6924 18.0938C59.6598 17.931 59.554 17.8496 59.375 17.8496C59.2285 17.8496 59.0576 17.874 58.8623 17.9229C58.6833 17.9717 58.4798 18.0205 58.252 18.0693C58.0404 18.1182 57.8288 18.167 57.6172 18.2158C57.4056 18.2646 57.2021 18.2891 57.0068 18.2891C56.8441 18.2891 56.7301 18.2728 56.665 18.2402C56.5999 18.224 56.4941 18.1751 56.3477 18.0938C56.2174 18.0124 56.0791 17.9147 55.9326 17.8008C55.8024 17.6868 55.6885 17.5648 55.5908 17.4346C55.4769 17.2881 55.4199 17.1416 55.4199 16.9951C55.4199 16.7998 55.485 16.5801 55.6152 16.3359C55.7292 16.0918 55.8105 15.8477 55.8594 15.6035C55.957 15.2292 55.9896 14.9281 55.957 14.7002C55.9408 14.4723 56.0059 14.2526 56.1523 14.041C56.2826 13.9108 56.4616 13.805 56.6895 13.7236C56.9336 13.626 57.1859 13.5527 57.4463 13.5039C57.7067 13.4388 57.959 13.3981 58.2031 13.3818C58.4635 13.3493 58.667 13.3249 58.8135 13.3086C59.7575 13.2109 60.8398 13.1621 62.0605 13.1621C62.8418 13.1621 63.6393 13.1865 64.4531 13.2354C65.2832 13.2679 66.0889 13.3249 66.8701 13.4062C67.6676 13.4714 68.4326 13.5609 69.165 13.6748C69.8975 13.7887 70.5648 13.9108 71.167 14.041C71.7855 14.1875 72.3714 14.4154 72.9248 14.7246C73.4782 15.0339 73.999 15.4001 74.4873 15.8232C74.9756 16.2301 75.4395 16.6777 75.8789 17.166C76.3184 17.638 76.7497 18.1019 77.1729 18.5576C77.3844 18.8018 77.5879 19.0296 77.7832 19.2412C77.9785 19.4528 78.1494 19.6562 78.2959 19.8516C78.4587 20.0306 78.5807 20.2178 78.6621 20.4131C78.7598 20.6084 78.8086 20.82 78.8086 21.0479V21.6094C78.8086 21.8698 78.8411 22.0814 78.9062 22.2441C78.9714 22.4069 79.0446 22.5534 79.126 22.6836C79.2074 22.7975 79.2969 22.9196 79.3945 23.0498C79.4922 23.1637 79.5817 23.3102 79.6631 23.4893C79.7119 23.652 79.7282 23.8636 79.7119 24.124C79.6956 24.3844 79.7282 24.6286 79.8096 24.8564C79.9398 25.3122 80.0944 25.6865 80.2734 25.9795C80.4688 26.2562 80.5664 26.5492 80.5664 26.8584ZM72.1191 26.1016C72.1191 25.9551 72.054 25.7354 71.9238 25.4424C71.8099 25.1331 71.7529 24.7669 71.7529 24.3438V23.3428C71.7529 22.5452 71.639 21.821 71.4111 21.1699C71.1995 20.5189 70.9147 19.9655 70.5566 19.5098C70.2148 19.0378 69.8242 18.6797 69.3848 18.4355C68.9616 18.1751 68.5384 18.0449 68.1152 18.0449C67.8548 18.0449 67.6025 18.0612 67.3584 18.0938C67.1305 18.1263 66.862 18.1426 66.5527 18.1426C66.3574 18.1426 66.1377 18.1263 65.8936 18.0938C65.6657 18.0612 65.4215 17.9961 65.1611 17.8984C65.1774 18.0775 65.1937 18.403 65.21 18.875C65.2425 19.347 65.2751 19.9167 65.3076 20.584C65.3402 21.2513 65.3809 21.9837 65.4297 22.7812C65.4785 23.5625 65.5273 24.3519 65.5762 25.1494C65.625 25.9469 65.6738 26.7201 65.7227 27.4688C65.7715 28.2174 65.8203 28.8766 65.8691 29.4463C65.918 30.016 65.9668 30.4798 66.0156 30.8379C66.0645 31.1797 66.1133 31.3506 66.1621 31.3506C66.3574 31.3506 66.5365 31.3262 66.6992 31.2773C66.8783 31.2122 67.041 31.139 67.1875 31.0576C67.3503 30.9762 67.513 30.8949 67.6758 30.8135C67.8385 30.7321 68.0176 30.6589 68.2129 30.5938C68.4082 30.5286 68.6279 30.4798 68.8721 30.4473C69.1162 30.4147 69.3604 30.374 69.6045 30.3252C69.8486 30.2764 70.0765 30.2113 70.2881 30.1299C70.516 30.0485 70.7113 29.9346 70.874 29.7881C71.0693 29.5928 71.1751 29.2998 71.1914 28.9092C71.224 28.5186 71.3135 28.0465 71.46 27.4932C71.5413 27.2165 71.6634 26.9642 71.8262 26.7363C71.9889 26.4922 72.0866 26.2806 72.1191 26.1016ZM99.7314 14.2607C99.7314 14.3096 99.7396 14.3584 99.7559 14.4072C99.7721 14.4561 99.7803 14.5049 99.7803 14.5537C99.7803 14.8467 99.7152 15.221 99.585 15.6768C99.4548 16.1325 99.3083 16.5882 99.1455 17.0439C98.999 17.4997 98.8444 17.9229 98.6816 18.3135C98.5352 18.6878 98.4375 18.932 98.3887 19.0459C98.1608 19.4691 97.9736 19.876 97.8271 20.2666C97.6969 20.641 97.5749 21.0234 97.4609 21.4141C97.3633 21.7884 97.2656 22.1628 97.168 22.5371C97.0866 22.9115 96.9727 23.3021 96.8262 23.709C96.7285 24.002 96.5902 24.3112 96.4111 24.6367C96.2484 24.9622 96.0612 25.2959 95.8496 25.6377C95.638 25.9795 95.4264 26.3376 95.2148 26.7119C95.0033 27.07 94.8079 27.4525 94.6289 27.8594C94.3522 28.4941 94.0999 29.194 93.8721 29.959C93.6442 30.7077 93.4163 31.5052 93.1885 32.3516C92.9769 33.1979 92.749 34.0768 92.5049 34.9883C92.277 35.8997 92.0166 36.8193 91.7236 37.7471C91.6423 37.9587 91.512 38.154 91.333 38.333C91.1702 38.4958 91.0319 38.6992 90.918 38.9434C90.7715 39.4479 90.6169 39.9606 90.4541 40.4814C90.3076 41.0023 90.1693 41.5231 90.0391 42.0439C89.9577 42.3532 89.86 42.7926 89.7461 43.3623C89.6484 43.9157 89.4857 44.4691 89.2578 45.0225C89.0462 45.5596 88.7614 46.0316 88.4033 46.4385C88.0452 46.8454 87.5732 47.0488 86.9873 47.0488C86.7757 47.0488 86.5479 47.0163 86.3037 46.9512C86.0596 46.8861 85.7503 46.8047 85.376 46.707C84.7249 46.5605 84.1227 46.3815 83.5693 46.1699C83.0322 45.9421 82.5684 45.6816 82.1777 45.3887C81.7871 45.0794 81.4779 44.7214 81.25 44.3145C81.0384 43.8913 80.9326 43.403 80.9326 42.8496C80.9326 42.1497 81.071 41.4906 81.3477 40.8721C81.6243 40.2373 81.9661 39.6188 82.373 39.0166C82.7962 38.3981 83.2357 37.7878 83.6914 37.1855C84.1471 36.5671 84.5622 35.9242 84.9365 35.2568C85.0179 35.0778 85.0586 34.8825 85.0586 34.6709C85.0749 34.4593 85.1318 34.2559 85.2295 34.0605C85.4248 33.6048 85.6689 33.1165 85.9619 32.5957C86.2712 32.0586 86.5397 31.5133 86.7676 30.96C86.9303 30.5531 87.0443 30.1543 87.1094 29.7637C87.1908 29.3568 87.3291 28.9661 87.5244 28.5918C87.6546 28.3151 87.8581 28.0465 88.1348 27.7861C88.4115 27.5257 88.623 27.2327 88.7695 26.9072C88.8997 26.6468 88.9811 26.3701 89.0137 26.0771C89.0625 25.7679 89.1357 25.4749 89.2334 25.1982C89.6403 24.3682 89.9902 23.6113 90.2832 22.9277C90.5924 22.2279 90.9098 21.5524 91.2354 20.9014C91.3656 20.641 91.5365 20.3724 91.748 20.0957C91.9596 19.819 92.1794 19.526 92.4072 19.2168C92.6514 18.9076 92.8874 18.5902 93.1152 18.2646C93.3431 17.9229 93.5465 17.5648 93.7256 17.1904C93.9697 16.6859 94.1488 16.1895 94.2627 15.7012C94.3929 15.2129 94.5557 14.7816 94.751 14.4072C94.9463 14.0329 95.2148 13.7318 95.5566 13.5039C95.9147 13.276 96.4355 13.1621 97.1191 13.1621C97.3958 13.1621 97.6725 13.1865 97.9492 13.2354C98.2422 13.2842 98.5107 13.3574 98.7549 13.4551C98.999 13.5527 99.2106 13.6748 99.3896 13.8213C99.5687 13.9515 99.6826 14.098 99.7314 14.2607ZM101.88 23.1963C101.929 22.9684 102.018 22.7731 102.148 22.6104C102.295 22.4313 102.45 22.2686 102.612 22.1221C102.791 21.9593 102.962 21.8047 103.125 21.6582C103.304 21.5117 103.459 21.3571 103.589 21.1943C103.735 20.9665 103.833 20.7223 103.882 20.4619C103.947 20.2015 104.045 19.9818 104.175 19.8027C104.338 19.6237 104.533 19.4447 104.761 19.2656C105.005 19.0866 105.233 18.8994 105.444 18.7041C105.607 18.5251 105.754 18.3542 105.884 18.1914C106.014 18.0124 106.152 17.8577 106.299 17.7275C106.445 17.5973 106.608 17.4915 106.787 17.4102C106.966 17.3288 107.186 17.2881 107.446 17.2881C107.625 17.2881 107.878 17.3451 108.203 17.459C108.545 17.5729 108.895 17.7357 109.253 17.9473C109.627 18.1426 109.993 18.3786 110.352 18.6553C110.726 18.9157 111.035 19.2005 111.279 19.5098C111.41 19.64 111.515 19.819 111.597 20.0469C111.694 20.2585 111.808 20.4294 111.938 20.5596C112.118 20.7386 112.37 20.9014 112.695 21.0479C113.021 21.1943 113.338 21.3978 113.647 21.6582C113.875 21.8535 114.079 22.0977 114.258 22.3906C114.437 22.6836 114.632 22.9033 114.844 23.0498C115.023 23.1475 115.234 23.2126 115.479 23.2451C115.739 23.2614 115.942 23.3428 116.089 23.4893C116.219 23.6032 116.333 23.7904 116.431 24.0508C116.528 24.3112 116.683 24.5472 116.895 24.7588C117.025 24.889 117.196 24.9704 117.407 25.0029C117.635 25.0355 117.814 25.1006 117.944 25.1982C117.993 25.2308 118.026 25.3122 118.042 25.4424C118.075 25.5563 118.14 25.6784 118.237 25.8086C118.302 25.8737 118.392 25.9632 118.506 26.0771C118.62 26.1748 118.734 26.2887 118.848 26.4189C118.962 26.5329 119.059 26.6549 119.141 26.7852C119.238 26.8991 119.303 26.9886 119.336 27.0537C119.368 27.1514 119.393 27.3304 119.409 27.5908C119.442 27.835 119.458 28.0954 119.458 28.3721C119.474 28.6325 119.482 28.8685 119.482 29.0801C119.482 29.2754 119.482 29.3649 119.482 29.3486C119.401 29.7718 119.214 30.1624 118.921 30.5205C118.628 30.8786 118.286 31.2204 117.896 31.5459C117.521 31.8551 117.139 32.1644 116.748 32.4736C116.357 32.7666 116.04 33.0758 115.796 33.4014C115.633 33.5804 115.535 33.792 115.503 34.0361C115.487 34.264 115.43 34.4512 115.332 34.5977C115.137 34.8743 114.86 35.1266 114.502 35.3545C114.16 35.5824 113.875 35.8509 113.647 36.1602C113.468 36.4043 113.33 36.681 113.232 36.9902C113.151 37.2832 113.021 37.5192 112.842 37.6982C112.63 37.8936 112.345 38.0807 111.987 38.2598C111.629 38.4388 111.296 38.6667 110.986 38.9434C110.889 39.041 110.791 39.1875 110.693 39.3828C110.612 39.5618 110.506 39.7165 110.376 39.8467C110.034 40.1885 109.668 40.5628 109.277 40.9697C108.903 41.3604 108.512 41.7266 108.105 42.0684C107.715 42.4102 107.324 42.695 106.934 42.9229C106.543 43.1344 106.16 43.2402 105.786 43.2402C105.526 43.2402 105.249 43.167 104.956 43.0205C104.663 42.8577 104.395 42.6543 104.15 42.4102C103.906 42.1497 103.703 41.8568 103.54 41.5312C103.377 41.1895 103.296 40.8477 103.296 40.5059C103.296 40.2617 103.385 39.9688 103.564 39.627C103.76 39.2852 103.988 38.9352 104.248 38.5771C104.508 38.2028 104.777 37.8447 105.054 37.5029C105.33 37.1449 105.558 36.8438 105.737 36.5996C105.868 36.4531 106.047 36.3229 106.274 36.209C106.519 36.0951 106.706 35.973 106.836 35.8428C106.934 35.7126 107.039 35.5254 107.153 35.2812C107.284 35.0208 107.43 34.793 107.593 34.5977C107.69 34.4837 107.869 34.2803 108.13 33.9873C108.407 33.6781 108.683 33.3607 108.96 33.0352C109.253 32.7096 109.505 32.4004 109.717 32.1074C109.945 31.8145 110.067 31.611 110.083 31.4971C110.083 31.2529 110.01 31.0576 109.863 30.9111C109.733 30.7646 109.57 30.6507 109.375 30.5693C109.18 30.4717 108.976 30.3903 108.765 30.3252C108.553 30.2438 108.374 30.138 108.228 30.0078C108.13 29.8939 108.032 29.7148 107.935 29.4707C107.853 29.2103 107.69 28.9661 107.446 28.7383C107.218 28.543 106.925 28.3639 106.567 28.2012C106.209 28.0221 105.819 27.835 105.396 27.6396C104.972 27.4443 104.541 27.2409 104.102 27.0293C103.678 26.8014 103.296 26.5492 102.954 26.2725C102.612 25.9795 102.327 25.654 102.1 25.2959C101.888 24.9378 101.782 24.5228 101.782 24.0508C101.782 23.9206 101.782 23.7822 101.782 23.6357C101.799 23.4893 101.831 23.3428 101.88 23.1963Z" fill="url(#paint0_linear_204_3)"/>
<defs>
<linearGradient id="paint0_linear_204_3" x1="0" y1="30.5" x2="122.253" y2="30.5" gradientUnits="userSpaceOnUse">
<stop offset="0.395833" stop-color="#14B8A6"/>
<stop offset="1" stop-color="#06B6D4"/>
</linearGradient>
</defs>
</svg>
